<?xml version="1.0" encoding="utf-8" standalone="no"?>
<!DOCTYPE svg PUBLIC "-//W3C//DTD SVG 1.1//EN"
  "http://www.w3.org/Graphics/SVG/1.1/DTD/svg11.dtd">
<svg xmlns:xlink="http://www.w3.org/1999/xlink" width="399.624687pt" height="312.30825pt" viewBox="0 0 399.624687 312.30825" xmlns="http://www.w3.org/2000/svg" version="1.1">
 <metadata>
  <rdf:RDF xmlns:dc="http://purl.org/dc/elements/1.1/" xmlns:cc="http://creativecommons.org/ns#" xmlns:rdf="http://www.w3.org/1999/02/22-rdf-syntax-ns#">
   <cc:Work>
    <dc:type rdf:resource="http://purl.org/dc/dcmitype/StillImage"/>
    <dc:date>2023-12-15T14:44:03.934895</dc:date>
    <dc:format>image/svg+xml</dc:format>
    <dc:creator>
     <cc:Agent>
      <dc:title>Matplotlib v3.7.1, https://matplotlib.org/</dc:title>
     </cc:Agent>
    </dc:creator>
   </cc:Work>
  </rdf:RDF>
 </metadata>
 <defs>
  <style type="text/css">*{stroke-linejoin: round; stroke-linecap: butt}</style>
 </defs>
 <g id="figure_1">
  <g id="patch_1">
   <path d="M 0 312.30825 
L 399.624687 312.30825 
L 399.624687 0 
L 0 0 
z
" style="fill: #ffffff"/>
  </g>
  <g id="axes_1">
   <g id="patch_2">
    <path d="M 35.304688 288.430125 
L 392.424688 288.430125 
L 392.424688 22.318125 
L 35.304688 22.318125 
z
" style="fill: #ffffff"/>
   </g>
   <g id="PathCollection_1">
    <defs>
     <path id="C0_0_34273da0bf" d="M 0 3 
C 0.795609 3 1.55874 2.683901 2.12132 2.12132 
C 2.683901 1.55874 3 0.795609 3 -0 
C 3 -0.795609 2.683901 -1.55874 2.12132 -2.12132 
C 1.55874 -2.683901 0.795609 -3 0 -3 
C -0.795609 -3 -1.55874 -2.683901 -2.12132 -2.12132 
C -2.683901 -1.55874 -3 -0.795609 -3 0 
C -3 0.795609 -2.683901 1.55874 -2.12132 2.12132 
C -1.55874 2.683901 -0.795609 3 0 3 
z
"/>
    </defs>
    <g clip-path="url(#pee65333f75)">
     <use xlink:href="#C0_0_34273da0bf" x="179.47585" y="67.349533" style="fill: #1f77b4; stroke: #1f77b4"/>
    </g>
    <g clip-path="url(#pee65333f75)">
     <use xlink:href="#C0_0_34273da0bf" x="237.81393" y="144.525601" style="fill: #1f77b4; stroke: #1f77b4"/>
    </g>
    <g clip-path="url(#pee65333f75)">
     <use xlink:href="#C0_0_34273da0bf" x="346.714707" y="86.116651" style="fill: #1f77b4; stroke: #1f77b4"/>
    </g>
    <g clip-path="url(#pee65333f75)">
     <use xlink:href="#C0_0_34273da0bf" x="259.245085" y="276.334125" style="fill: #aec7e8; stroke: #aec7e8"/>
    </g>
    <g clip-path="url(#pee65333f75)">
     <use xlink:href="#C0_0_34273da0bf" x="245.224479" y="230.680756" style="fill: #aec7e8; stroke: #aec7e8"/>
    </g>
    <g clip-path="url(#pee65333f75)">
     <use xlink:href="#C0_0_34273da0bf" x="217.548645" y="212.973313" style="fill: #aec7e8; stroke: #aec7e8"/>
    </g>
    <g clip-path="url(#pee65333f75)">
     <use xlink:href="#C0_0_34273da0bf" x="301.41412" y="63.402981" style="fill: #ff7f0e; stroke: #ff7f0e"/>
    </g>
    <g clip-path="url(#pee65333f75)">
     <use xlink:href="#C0_0_34273da0bf" x="322.010799" y="46.074426" style="fill: #ff7f0e; stroke: #ff7f0e"/>
    </g>
    <g clip-path="url(#pee65333f75)">
     <use xlink:href="#C0_0_34273da0bf" x="292.378092" y="129.93256" style="fill: #ff7f0e; stroke: #ff7f0e"/>
    </g>
    <g clip-path="url(#pee65333f75)">
     <use xlink:href="#C0_0_34273da0bf" x="137.321439" y="166.757116" style="fill: #ffbb78; stroke: #ffbb78"/>
    </g>
    <g clip-path="url(#pee65333f75)">
     <use xlink:href="#C0_0_34273da0bf" x="326.686487" y="156.659364" style="fill: #ffbb78; stroke: #ffbb78"/>
    </g>
    <g clip-path="url(#pee65333f75)">
     <use xlink:href="#C0_0_34273da0bf" x="362.746527" y="158.833517" style="fill: #ffbb78; stroke: #ffbb78"/>
    </g>
    <g clip-path="url(#pee65333f75)">
     <use xlink:href="#C0_0_34273da0bf" x="334.132322" y="122.636403" style="fill: #2ca02c; stroke: #2ca02c"/>
    </g>
    <g clip-path="url(#pee65333f75)">
     <use xlink:href="#C0_0_34273da0bf" x="301.123618" y="106.775097" style="fill: #2ca02c; stroke: #2ca02c"/>
    </g>
    <g clip-path="url(#pee65333f75)">
     <use xlink:href="#C0_0_34273da0bf" x="376.19196" y="119.233566" style="fill: #2ca02c; stroke: #2ca02c"/>
    </g>
    <g clip-path="url(#pee65333f75)">
     <use xlink:href="#C0_0_34273da0bf" x="279.424881" y="249.429591" style="fill: #98df8a; stroke: #98df8a"/>
    </g>
    <g clip-path="url(#pee65333f75)">
     <use xlink:href="#C0_0_34273da0bf" x="308.909996" y="246.703515" style="fill: #98df8a; stroke: #98df8a"/>
    </g>
    <g clip-path="url(#pee65333f75)">
     <use xlink:href="#C0_0_34273da0bf" x="295.914789" y="268.248812" style="fill: #98df8a; stroke: #98df8a"/>
    </g>
    <g clip-path="url(#pee65333f75)">
     <use xlink:href="#C0_0_34273da0bf" x="201.924427" y="96.55449" style="fill: #d62728; stroke: #d62728"/>
    </g>
    <g clip-path="url(#pee65333f75)">
     <use xlink:href="#C0_0_34273da0bf" x="220.935141" y="109.878939" style="fill: #d62728; stroke: #d62728"/>
    </g>
    <g clip-path="url(#pee65333f75)">
     <use xlink:href="#C0_0_34273da0bf" x="250.258722" y="107.395792" style="fill: #d62728; stroke: #d62728"/>
    </g>
    <g clip-path="url(#pee65333f75)">
     <use xlink:href="#C0_0_34273da0bf" x="249.336161" y="62.840332" style="fill: #ff9896; stroke: #ff9896"/>
    </g>
    <g clip-path="url(#pee65333f75)">
     <use xlink:href="#C0_0_34273da0bf" x="257.785735" y="77.148051" style="fill: #ff9896; stroke: #ff9896"/>
    </g>
    <g clip-path="url(#pee65333f75)">
     <use xlink:href="#C0_0_34273da0bf" x="243.357839" y="34.414125" style="fill: #ff9896; stroke: #ff9896"/>
    </g>
    <g clip-path="url(#pee65333f75)">
     <use xlink:href="#C0_0_34273da0bf" x="76.812513" y="103.909801" style="fill: #9467bd; stroke: #9467bd"/>
    </g>
    <g clip-path="url(#pee65333f75)">
     <use xlink:href="#C0_0_34273da0bf" x="51.537415" y="71.063507" style="fill: #9467bd; stroke: #9467bd"/>
    </g>
    <g clip-path="url(#pee65333f75)">
     <use xlink:href="#C0_0_34273da0bf" x="70.770924" y="118.93083" style="fill: #9467bd; stroke: #9467bd"/>
    </g>
    <g clip-path="url(#pee65333f75)">
     <use xlink:href="#C0_0_34273da0bf" x="156.708455" y="128.022379" style="fill: #c5b0d5; stroke: #c5b0d5"/>
    </g>
    <g clip-path="url(#pee65333f75)">
     <use xlink:href="#C0_0_34273da0bf" x="147.2447" y="142.392025" style="fill: #c5b0d5; stroke: #c5b0d5"/>
    </g>
    <g clip-path="url(#pee65333f75)">
     <use xlink:href="#C0_0_34273da0bf" x="67.595366" y="58.445553" style="fill: #c5b0d5; stroke: #c5b0d5"/>
    </g>
   </g>
   <g id="matplotlib.axis_1">
    <g id="xtick_1">
     <g id="line2d_1">
      <defs>
       <path id="mc5fb72b2fb" d="M 0 0 
L 0 3.5 
" style="stroke: #000000; stroke-width: 0.8"/>
      </defs>
      <g>
       <use xlink:href="#mc5fb72b2fb" x="65.696705" y="288.430125" style="stroke: #000000; stroke-width: 0.8"/>
      </g>
     </g>
     <g id="text_1">
      <!-- −40 -->
      <g transform="translate(55.144361 303.028562) scale(0.1 -0.1)">
       <defs>
        <path id="DejaVuSans-2212" d="M 678 2272 
L 4684 2272 
L 4684 1741 
L 678 1741 
L 678 2272 
z
" transform="scale(0.015625)"/>
        <path id="DejaVuSans-34" d="M 2419 4116 
L 825 1625 
L 2419 1625 
L 2419 4116 
z
M 2253 4666 
L 3047 4666 
L 3047 1625 
L 3713 1625 
L 3713 1100 
L 3047 1100 
L 3047 0 
L 2419 0 
L 2419 1100 
L 313 1100 
L 313 1709 
L 2253 4666 
z
" transform="scale(0.015625)"/>
        <path id="DejaVuSans-30" d="M 2034 4250 
Q 1547 4250 1301 3770 
Q 1056 3291 1056 2328 
Q 1056 1369 1301 889 
Q 1547 409 2034 409 
Q 2525 409 2770 889 
Q 3016 1369 3016 2328 
Q 3016 3291 2770 3770 
Q 2525 4250 2034 4250 
z
M 2034 4750 
Q 2819 4750 3233 4129 
Q 3647 3509 3647 2328 
Q 3647 1150 3233 529 
Q 2819 -91 2034 -91 
Q 1250 -91 836 529 
Q 422 1150 422 2328 
Q 422 3509 836 4129 
Q 1250 4750 2034 4750 
z
" transform="scale(0.015625)"/>
       </defs>
       <use xlink:href="#DejaVuSans-2212"/>
       <use xlink:href="#DejaVuSans-34" x="83.789062"/>
       <use xlink:href="#DejaVuSans-30" x="147.412109"/>
      </g>
     </g>
    </g>
    <g id="xtick_2">
     <g id="line2d_2">
      <g>
       <use xlink:href="#mc5fb72b2fb" x="110.164414" y="288.430125" style="stroke: #000000; stroke-width: 0.8"/>
      </g>
     </g>
     <g id="text_2">
      <!-- −30 -->
      <g transform="translate(99.61207 303.028562) scale(0.1 -0.1)">
       <defs>
        <path id="DejaVuSans-33" d="M 2597 2516 
Q 3050 2419 3304 2112 
Q 3559 1806 3559 1356 
Q 3559 666 3084 287 
Q 2609 -91 1734 -91 
Q 1441 -91 1130 -33 
Q 819 25 488 141 
L 488 750 
Q 750 597 1062 519 
Q 1375 441 1716 441 
Q 2309 441 2620 675 
Q 2931 909 2931 1356 
Q 2931 1769 2642 2001 
Q 2353 2234 1838 2234 
L 1294 2234 
L 1294 2753 
L 1863 2753 
Q 2328 2753 2575 2939 
Q 2822 3125 2822 3475 
Q 2822 3834 2567 4026 
Q 2313 4219 1838 4219 
Q 1578 4219 1281 4162 
Q 984 4106 628 3988 
L 628 4550 
Q 988 4650 1302 4700 
Q 1616 4750 1894 4750 
Q 2613 4750 3031 4423 
Q 3450 4097 3450 3541 
Q 3450 3153 3228 2886 
Q 3006 2619 2597 2516 
z
" transform="scale(0.015625)"/>
       </defs>
       <use xlink:href="#DejaVuSans-2212"/>
       <use xlink:href="#DejaVuSans-33" x="83.789062"/>
       <use xlink:href="#DejaVuSans-30" x="147.412109"/>
      </g>
     </g>
    </g>
    <g id="xtick_3">
     <g id="line2d_3">
      <g>
       <use xlink:href="#mc5fb72b2fb" x="154.632123" y="288.430125" style="stroke: #000000; stroke-width: 0.8"/>
      </g>
     </g>
     <g id="text_3">
      <!-- −20 -->
      <g transform="translate(144.079779 303.028562) scale(0.1 -0.1)">
       <defs>
        <path id="DejaVuSans-32" d="M 1228 531 
L 3431 531 
L 3431 0 
L 469 0 
L 469 531 
Q 828 903 1448 1529 
Q 2069 2156 2228 2338 
Q 2531 2678 2651 2914 
Q 2772 3150 2772 3378 
Q 2772 3750 2511 3984 
Q 2250 4219 1831 4219 
Q 1534 4219 1204 4116 
Q 875 4013 500 3803 
L 500 4441 
Q 881 4594 1212 4672 
Q 1544 4750 1819 4750 
Q 2544 4750 2975 4387 
Q 3406 4025 3406 3419 
Q 3406 3131 3298 2873 
Q 3191 2616 2906 2266 
Q 2828 2175 2409 1742 
Q 1991 1309 1228 531 
z
" transform="scale(0.015625)"/>
       </defs>
       <use xlink:href="#DejaVuSans-2212"/>
       <use xlink:href="#DejaVuSans-32" x="83.789062"/>
       <use xlink:href="#DejaVuSans-30" x="147.412109"/>
      </g>
     </g>
    </g>
    <g id="xtick_4">
     <g id="line2d_4">
      <g>
       <use xlink:href="#mc5fb72b2fb" x="199.099832" y="288.430125" style="stroke: #000000; stroke-width: 0.8"/>
      </g>
     </g>
     <g id="text_4">
      <!-- −10 -->
      <g transform="translate(188.547488 303.028562) scale(0.1 -0.1)">
       <defs>
        <path id="DejaVuSans-31" d="M 794 531 
L 1825 531 
L 1825 4091 
L 703 3866 
L 703 4441 
L 1819 4666 
L 2450 4666 
L 2450 531 
L 3481 531 
L 3481 0 
L 794 0 
L 794 531 
z
" transform="scale(0.015625)"/>
       </defs>
       <use xlink:href="#DejaVuSans-2212"/>
       <use xlink:href="#DejaVuSans-31" x="83.789062"/>
       <use xlink:href="#DejaVuSans-30" x="147.412109"/>
      </g>
     </g>
    </g>
    <g id="xtick_5">
     <g id="line2d_5">
      <g>
       <use xlink:href="#mc5fb72b2fb" x="243.567541" y="288.430125" style="stroke: #000000; stroke-width: 0.8"/>
      </g>
     </g>
     <g id="text_5">
      <!-- 0 -->
      <g transform="translate(240.386291 303.028562) scale(0.1 -0.1)">
       <use xlink:href="#DejaVuSans-30"/>
      </g>
     </g>
    </g>
    <g id="xtick_6">
     <g id="line2d_6">
      <g>
       <use xlink:href="#mc5fb72b2fb" x="288.03525" y="288.430125" style="stroke: #000000; stroke-width: 0.8"/>
      </g>
     </g>
     <g id="text_6">
      <!-- 10 -->
      <g transform="translate(281.67275 303.028562) scale(0.1 -0.1)">
       <use xlink:href="#DejaVuSans-31"/>
       <use xlink:href="#DejaVuSans-30" x="63.623047"/>
      </g>
     </g>
    </g>
    <g id="xtick_7">
     <g id="line2d_7">
      <g>
       <use xlink:href="#mc5fb72b2fb" x="332.502959" y="288.430125" style="stroke: #000000; stroke-width: 0.8"/>
      </g>
     </g>
     <g id="text_7">
      <!-- 20 -->
      <g transform="translate(326.140459 303.028562) scale(0.1 -0.1)">
       <use xlink:href="#DejaVuSans-32"/>
       <use xlink:href="#DejaVuSans-30" x="63.623047"/>
      </g>
     </g>
    </g>
    <g id="xtick_8">
     <g id="line2d_8">
      <g>
       <use xlink:href="#mc5fb72b2fb" x="376.970668" y="288.430125" style="stroke: #000000; stroke-width: 0.8"/>
      </g>
     </g>
     <g id="text_8">
      <!-- 30 -->
      <g transform="translate(370.608168 303.028562) scale(0.1 -0.1)">
       <use xlink:href="#DejaVuSans-33"/>
       <use xlink:href="#DejaVuSans-30" x="63.623047"/>
      </g>
     </g>
    </g>
   </g>
   <g id="matplotlib.axis_2">
    <g id="ytick_1">
     <g id="line2d_9">
      <defs>
       <path id="m62cc7542fa" d="M 0 0 
L -3.5 0 
" style="stroke: #000000; stroke-width: 0.8"/>
      </defs>
      <g>
       <use xlink:href="#m62cc7542fa" x="35.304688" y="283.936859" style="stroke: #000000; stroke-width: 0.8"/>
      </g>
     </g>
     <g id="text_9">
      <!-- −60 -->
      <g transform="translate(7.2 287.736078) scale(0.1 -0.1)">
       <defs>
        <path id="DejaVuSans-36" d="M 2113 2584 
Q 1688 2584 1439 2293 
Q 1191 2003 1191 1497 
Q 1191 994 1439 701 
Q 1688 409 2113 409 
Q 2538 409 2786 701 
Q 3034 994 3034 1497 
Q 3034 2003 2786 2293 
Q 2538 2584 2113 2584 
z
M 3366 4563 
L 3366 3988 
Q 3128 4100 2886 4159 
Q 2644 4219 2406 4219 
Q 1781 4219 1451 3797 
Q 1122 3375 1075 2522 
Q 1259 2794 1537 2939 
Q 1816 3084 2150 3084 
Q 2853 3084 3261 2657 
Q 3669 2231 3669 1497 
Q 3669 778 3244 343 
Q 2819 -91 2113 -91 
Q 1303 -91 875 529 
Q 447 1150 447 2328 
Q 447 3434 972 4092 
Q 1497 4750 2381 4750 
Q 2619 4750 2861 4703 
Q 3103 4656 3366 4563 
z
" transform="scale(0.015625)"/>
       </defs>
       <use xlink:href="#DejaVuSans-2212"/>
       <use xlink:href="#DejaVuSans-36" x="83.789062"/>
       <use xlink:href="#DejaVuSans-30" x="147.412109"/>
      </g>
     </g>
    </g>
    <g id="ytick_2">
     <g id="line2d_10">
      <g>
       <use xlink:href="#m62cc7542fa" x="35.304688" y="232.910288" style="stroke: #000000; stroke-width: 0.8"/>
      </g>
     </g>
     <g id="text_10">
      <!-- −40 -->
      <g transform="translate(7.2 236.709507) scale(0.1 -0.1)">
       <use xlink:href="#DejaVuSans-2212"/>
       <use xlink:href="#DejaVuSans-34" x="83.789062"/>
       <use xlink:href="#DejaVuSans-30" x="147.412109"/>
      </g>
     </g>
    </g>
    <g id="ytick_3">
     <g id="line2d_11">
      <g>
       <use xlink:href="#m62cc7542fa" x="35.304688" y="181.883717" style="stroke: #000000; stroke-width: 0.8"/>
      </g>
     </g>
     <g id="text_11">
      <!-- −20 -->
      <g transform="translate(7.2 185.682935) scale(0.1 -0.1)">
       <use xlink:href="#DejaVuSans-2212"/>
       <use xlink:href="#DejaVuSans-32" x="83.789062"/>
       <use xlink:href="#DejaVuSans-30" x="147.412109"/>
      </g>
     </g>
    </g>
    <g id="ytick_4">
     <g id="line2d_12">
      <g>
       <use xlink:href="#m62cc7542fa" x="35.304688" y="130.857146" style="stroke: #000000; stroke-width: 0.8"/>
      </g>
     </g>
     <g id="text_12">
      <!-- 0 -->
      <g transform="translate(21.942187 134.656364) scale(0.1 -0.1)">
       <use xlink:href="#DejaVuSans-30"/>
      </g>
     </g>
    </g>
    <g id="ytick_5">
     <g id="line2d_13">
      <g>
       <use xlink:href="#m62cc7542fa" x="35.304688" y="79.830574" style="stroke: #000000; stroke-width: 0.8"/>
      </g>
     </g>
     <g id="text_13">
      <!-- 20 -->
      <g transform="translate(15.579687 83.629793) scale(0.1 -0.1)">
       <use xlink:href="#DejaVuSans-32"/>
       <use xlink:href="#DejaVuSans-30" x="63.623047"/>
      </g>
     </g>
    </g>
    <g id="ytick_6">
     <g id="line2d_14">
      <g>
       <use xlink:href="#m62cc7542fa" x="35.304688" y="28.804003" style="stroke: #000000; stroke-width: 0.8"/>
      </g>
     </g>
     <g id="text_14">
      <!-- 40 -->
      <g transform="translate(15.579687 32.603222) scale(0.1 -0.1)">
       <use xlink:href="#DejaVuSans-34"/>
       <use xlink:href="#DejaVuSans-30" x="63.623047"/>
      </g>
     </g>
    </g>
   </g>
   <g id="patch_3">
    <path d="M 35.304688 288.430125 
L 35.304688 22.318125 
" style="fill: none; stroke: #000000; stroke-width: 0.8; stroke-linejoin: miter; stroke-linecap: square"/>
   </g>
   <g id="patch_4">
    <path d="M 392.424688 288.430125 
L 392.424688 22.318125 
" style="fill: none; stroke: #000000; stroke-width: 0.8; stroke-linejoin: miter; stroke-linecap: square"/>
   </g>
   <g id="patch_5">
    <path d="M 35.304688 288.430125 
L 392.424688 288.430125 
" style="fill: none; stroke: #000000; stroke-width: 0.8; stroke-linejoin: miter; stroke-linecap: square"/>
   </g>
   <g id="patch_6">
    <path d="M 35.304688 22.318125 
L 392.424688 22.318125 
" style="fill: none; stroke: #000000; stroke-width: 0.8; stroke-linejoin: miter; stroke-linecap: square"/>
   </g>
   <g id="text_15">
    <!-- t-SNE Visualization of Features -->
    <g transform="translate(122.0675 16.318125) scale(0.12 -0.12)">
     <defs>
      <path id="DejaVuSans-74" d="M 1172 4494 
L 1172 3500 
L 2356 3500 
L 2356 3053 
L 1172 3053 
L 1172 1153 
Q 1172 725 1289 603 
Q 1406 481 1766 481 
L 2356 481 
L 2356 0 
L 1766 0 
Q 1100 0 847 248 
Q 594 497 594 1153 
L 594 3053 
L 172 3053 
L 172 3500 
L 594 3500 
L 594 4494 
L 1172 4494 
z
" transform="scale(0.015625)"/>
      <path id="DejaVuSans-2d" d="M 313 2009 
L 1997 2009 
L 1997 1497 
L 313 1497 
L 313 2009 
z
" transform="scale(0.015625)"/>
      <path id="DejaVuSans-53" d="M 3425 4513 
L 3425 3897 
Q 3066 4069 2747 4153 
Q 2428 4238 2131 4238 
Q 1616 4238 1336 4038 
Q 1056 3838 1056 3469 
Q 1056 3159 1242 3001 
Q 1428 2844 1947 2747 
L 2328 2669 
Q 3034 2534 3370 2195 
Q 3706 1856 3706 1288 
Q 3706 609 3251 259 
Q 2797 -91 1919 -91 
Q 1588 -91 1214 -16 
Q 841 59 441 206 
L 441 856 
Q 825 641 1194 531 
Q 1563 422 1919 422 
Q 2459 422 2753 634 
Q 3047 847 3047 1241 
Q 3047 1584 2836 1778 
Q 2625 1972 2144 2069 
L 1759 2144 
Q 1053 2284 737 2584 
Q 422 2884 422 3419 
Q 422 4038 858 4394 
Q 1294 4750 2059 4750 
Q 2388 4750 2728 4690 
Q 3069 4631 3425 4513 
z
" transform="scale(0.015625)"/>
      <path id="DejaVuSans-4e" d="M 628 4666 
L 1478 4666 
L 3547 763 
L 3547 4666 
L 4159 4666 
L 4159 0 
L 3309 0 
L 1241 3903 
L 1241 0 
L 628 0 
L 628 4666 
z
" transform="scale(0.015625)"/>
      <path id="DejaVuSans-45" d="M 628 4666 
L 3578 4666 
L 3578 4134 
L 1259 4134 
L 1259 2753 
L 3481 2753 
L 3481 2222 
L 1259 2222 
L 1259 531 
L 3634 531 
L 3634 0 
L 628 0 
L 628 4666 
z
" transform="scale(0.015625)"/>
      <path id="DejaVuSans-20" transform="scale(0.015625)"/>
      <path id="DejaVuSans-56" d="M 1831 0 
L 50 4666 
L 709 4666 
L 2188 738 
L 3669 4666 
L 4325 4666 
L 2547 0 
L 1831 0 
z
" transform="scale(0.015625)"/>
      <path id="DejaVuSans-69" d="M 603 3500 
L 1178 3500 
L 1178 0 
L 603 0 
L 603 3500 
z
M 603 4863 
L 1178 4863 
L 1178 4134 
L 603 4134 
L 603 4863 
z
" transform="scale(0.015625)"/>
      <path id="DejaVuSans-73" d="M 2834 3397 
L 2834 2853 
Q 2591 2978 2328 3040 
Q 2066 3103 1784 3103 
Q 1356 3103 1142 2972 
Q 928 2841 928 2578 
Q 928 2378 1081 2264 
Q 1234 2150 1697 2047 
L 1894 2003 
Q 2506 1872 2764 1633 
Q 3022 1394 3022 966 
Q 3022 478 2636 193 
Q 2250 -91 1575 -91 
Q 1294 -91 989 -36 
Q 684 19 347 128 
L 347 722 
Q 666 556 975 473 
Q 1284 391 1588 391 
Q 1994 391 2212 530 
Q 2431 669 2431 922 
Q 2431 1156 2273 1281 
Q 2116 1406 1581 1522 
L 1381 1569 
Q 847 1681 609 1914 
Q 372 2147 372 2553 
Q 372 3047 722 3315 
Q 1072 3584 1716 3584 
Q 2034 3584 2315 3537 
Q 2597 3491 2834 3397 
z
" transform="scale(0.015625)"/>
      <path id="DejaVuSans-75" d="M 544 1381 
L 544 3500 
L 1119 3500 
L 1119 1403 
Q 1119 906 1312 657 
Q 1506 409 1894 409 
Q 2359 409 2629 706 
Q 2900 1003 2900 1516 
L 2900 3500 
L 3475 3500 
L 3475 0 
L 2900 0 
L 2900 538 
Q 2691 219 2414 64 
Q 2138 -91 1772 -91 
Q 1169 -91 856 284 
Q 544 659 544 1381 
z
M 1991 3584 
L 1991 3584 
z
" transform="scale(0.015625)"/>
      <path id="DejaVuSans-61" d="M 2194 1759 
Q 1497 1759 1228 1600 
Q 959 1441 959 1056 
Q 959 750 1161 570 
Q 1363 391 1709 391 
Q 2188 391 2477 730 
Q 2766 1069 2766 1631 
L 2766 1759 
L 2194 1759 
z
M 3341 1997 
L 3341 0 
L 2766 0 
L 2766 531 
Q 2569 213 2275 61 
Q 1981 -91 1556 -91 
Q 1019 -91 701 211 
Q 384 513 384 1019 
Q 384 1609 779 1909 
Q 1175 2209 1959 2209 
L 2766 2209 
L 2766 2266 
Q 2766 2663 2505 2880 
Q 2244 3097 1772 3097 
Q 1472 3097 1187 3025 
Q 903 2953 641 2809 
L 641 3341 
Q 956 3463 1253 3523 
Q 1550 3584 1831 3584 
Q 2591 3584 2966 3190 
Q 3341 2797 3341 1997 
z
" transform="scale(0.015625)"/>
      <path id="DejaVuSans-6c" d="M 603 4863 
L 1178 4863 
L 1178 0 
L 603 0 
L 603 4863 
z
" transform="scale(0.015625)"/>
      <path id="DejaVuSans-7a" d="M 353 3500 
L 3084 3500 
L 3084 2975 
L 922 459 
L 3084 459 
L 3084 0 
L 275 0 
L 275 525 
L 2438 3041 
L 353 3041 
L 353 3500 
z
" transform="scale(0.015625)"/>
      <path id="DejaVuSans-6f" d="M 1959 3097 
Q 1497 3097 1228 2736 
Q 959 2375 959 1747 
Q 959 1119 1226 758 
Q 1494 397 1959 397 
Q 2419 397 2687 759 
Q 2956 1122 2956 1747 
Q 2956 2369 2687 2733 
Q 2419 3097 1959 3097 
z
M 1959 3584 
Q 2709 3584 3137 3096 
Q 3566 2609 3566 1747 
Q 3566 888 3137 398 
Q 2709 -91 1959 -91 
Q 1206 -91 779 398 
Q 353 888 353 1747 
Q 353 2609 779 3096 
Q 1206 3584 1959 3584 
z
" transform="scale(0.015625)"/>
      <path id="DejaVuSans-6e" d="M 3513 2113 
L 3513 0 
L 2938 0 
L 2938 2094 
Q 2938 2591 2744 2837 
Q 2550 3084 2163 3084 
Q 1697 3084 1428 2787 
Q 1159 2491 1159 1978 
L 1159 0 
L 581 0 
L 581 3500 
L 1159 3500 
L 1159 2956 
Q 1366 3272 1645 3428 
Q 1925 3584 2291 3584 
Q 2894 3584 3203 3211 
Q 3513 2838 3513 2113 
z
" transform="scale(0.015625)"/>
      <path id="DejaVuSans-66" d="M 2375 4863 
L 2375 4384 
L 1825 4384 
Q 1516 4384 1395 4259 
Q 1275 4134 1275 3809 
L 1275 3500 
L 2222 3500 
L 2222 3053 
L 1275 3053 
L 1275 0 
L 697 0 
L 697 3053 
L 147 3053 
L 147 3500 
L 697 3500 
L 697 3744 
Q 697 4328 969 4595 
Q 1241 4863 1831 4863 
L 2375 4863 
z
" transform="scale(0.015625)"/>
      <path id="DejaVuSans-46" d="M 628 4666 
L 3309 4666 
L 3309 4134 
L 1259 4134 
L 1259 2759 
L 3109 2759 
L 3109 2228 
L 1259 2228 
L 1259 0 
L 628 0 
L 628 4666 
z
" transform="scale(0.015625)"/>
      <path id="DejaVuSans-65" d="M 3597 1894 
L 3597 1613 
L 953 1613 
Q 991 1019 1311 708 
Q 1631 397 2203 397 
Q 2534 397 2845 478 
Q 3156 559 3463 722 
L 3463 178 
Q 3153 47 2828 -22 
Q 2503 -91 2169 -91 
Q 1331 -91 842 396 
Q 353 884 353 1716 
Q 353 2575 817 3079 
Q 1281 3584 2069 3584 
Q 2775 3584 3186 3129 
Q 3597 2675 3597 1894 
z
M 3022 2063 
Q 3016 2534 2758 2815 
Q 2500 3097 2075 3097 
Q 1594 3097 1305 2825 
Q 1016 2553 972 2059 
L 3022 2063 
z
" transform="scale(0.015625)"/>
      <path id="DejaVuSans-72" d="M 2631 2963 
Q 2534 3019 2420 3045 
Q 2306 3072 2169 3072 
Q 1681 3072 1420 2755 
Q 1159 2438 1159 1844 
L 1159 0 
L 581 0 
L 581 3500 
L 1159 3500 
L 1159 2956 
Q 1341 3275 1631 3429 
Q 1922 3584 2338 3584 
Q 2397 3584 2469 3576 
Q 2541 3569 2628 3553 
L 2631 2963 
z
" transform="scale(0.015625)"/>
     </defs>
     <use xlink:href="#DejaVuSans-74"/>
     <use xlink:href="#DejaVuSans-2d" x="39.208984"/>
     <use xlink:href="#DejaVuSans-53" x="75.292969"/>
     <use xlink:href="#DejaVuSans-4e" x="138.769531"/>
     <use xlink:href="#DejaVuSans-45" x="213.574219"/>
     <use xlink:href="#DejaVuSans-20" x="276.757812"/>
     <use xlink:href="#DejaVuSans-56" x="308.544922"/>
     <use xlink:href="#DejaVuSans-69" x="374.703125"/>
     <use xlink:href="#DejaVuSans-73" x="402.486328"/>
     <use xlink:href="#DejaVuSans-75" x="454.585938"/>
     <use xlink:href="#DejaVuSans-61" x="517.964844"/>
     <use xlink:href="#DejaVuSans-6c" x="579.244141"/>
     <use xlink:href="#DejaVuSans-69" x="607.027344"/>
     <use xlink:href="#DejaVuSans-7a" x="634.810547"/>
     <use xlink:href="#DejaVuSans-61" x="687.300781"/>
     <use xlink:href="#DejaVuSans-74" x="748.580078"/>
     <use xlink:href="#DejaVuSans-69" x="787.789062"/>
     <use xlink:href="#DejaVuSans-6f" x="815.572266"/>
     <use xlink:href="#DejaVuSans-6e" x="876.753906"/>
     <use xlink:href="#DejaVuSans-20" x="940.132812"/>
     <use xlink:href="#DejaVuSans-6f" x="971.919922"/>
     <use xlink:href="#DejaVuSans-66" x="1033.101562"/>
     <use xlink:href="#DejaVuSans-20" x="1068.306641"/>
     <use xlink:href="#DejaVuSans-46" x="1100.09375"/>
     <use xlink:href="#DejaVuSans-65" x="1152.113281"/>
     <use xlink:href="#DejaVuSans-61" x="1213.636719"/>
     <use xlink:href="#DejaVuSans-74" x="1274.916016"/>
     <use xlink:href="#DejaVuSans-75" x="1314.125"/>
     <use xlink:href="#DejaVuSans-72" x="1377.503906"/>
     <use xlink:href="#DejaVuSans-65" x="1416.367188"/>
     <use xlink:href="#DejaVuSans-73" x="1477.890625"/>
    </g>
   </g>
   <g id="legend_1">
    <g id="patch_7">
     <path d="M 347.062187 44.99625 
L 385.424688 44.99625 
Q 387.424688 44.99625 387.424688 42.99625 
L 387.424688 29.318125 
Q 387.424688 27.318125 385.424688 27.318125 
L 347.062187 27.318125 
Q 345.062187 27.318125 345.062187 29.318125 
L 345.062187 42.99625 
Q 345.062187 44.99625 347.062187 44.99625 
z
" style="fill: #ffffff; opacity: 0.8; stroke: #cccccc; stroke-linejoin: miter"/>
    </g>
    <g id="PathCollection_2">
     <path d="M 359.062187 39.291562 
C 359.857797 39.291562 360.620927 38.975464 361.183508 38.412883 
C 361.746089 37.850302 362.062187 37.087172 362.062187 36.291562 
C 362.062187 35.495953 361.746089 34.732823 361.183508 34.170242 
C 360.620927 33.607661 359.857797 33.291562 359.062187 33.291562 
C 358.266578 33.291562 357.503448 33.607661 356.940867 34.170242 
C 356.378286 34.732823 356.062187 35.495953 356.062187 36.291562 
C 356.062187 37.087172 356.378286 37.850302 356.940867 38.412883 
C 357.503448 38.975464 358.266578 39.291562 359.062187 39.291562 
z
" style="fill: #1f77b4; stroke: #1f77b4"/>
    </g>
    <g id="text_16">
     <!-- 0 -->
     <g transform="translate(377.062187 38.916562) scale(0.1 -0.1)">
      <use xlink:href="#DejaVuSans-30"/>
     </g>
    </g>
   </g>
  </g>
 </g>
 <defs>
  <clipPath id="pee65333f75">
   <rect x="35.304688" y="22.318125" width="357.12" height="266.112"/>
  </clipPath>
 </defs>
</svg>
